<svg width="200" height="200" viewBox="0 0 200 200" xmlns="http://www.w3.org/2000/svg">
  <defs>
    <linearGradient id="avatarGradient" x1="0%" y1="0%" x2="100%" y2="100%">
      <stop offset="0%" style="stop-color:#667eea;stop-opacity:1" />
      <stop offset="100%" style="stop-color:#764ba2;stop-opacity:1" />
    </linearGradient>
  </defs>

  <!-- 背景圆圈 -->
  <circle cx="100" cy="100" r="100" fill="url(#avatarGradient)" />

  <!-- 头部轮廓 -->
  <circle cx="100" cy="85" r="35" fill="#fff" />

  <!-- 身体 -->
  <path d="M65 120 Q65 140 85 140 L115 140 Q135 140 135 120 Z" fill="#fff" />

  <!-- 眼睛 -->
  <circle cx="92" cy="80" r="3" fill="#409eff" />
  <circle cx="108" cy="80" r="3" fill="#409eff" />

  <!-- 嘴巴 -->
  <path d="M95 90 Q100 95 105 90" stroke="#409eff" stroke-width="2" fill="none" stroke-linecap="round" />

  <!-- 头发 -->
  <path d="M70 60 Q75 50 85 55 Q95 45 105 55 Q115 50 120 60 Q125 65 130 65 Q135 70 135 75 Q130 80 125 75 Q120 85 110 80 Q100 90 90 80 Q80 85 75 75 Q70 80 65 75 Q60 70 65 65 Z" fill="#2c3e50" />
</svg>
